<?xml version="1.0" encoding="UTF-8" standalone="no"?>
<svg
   xmlns:dc="http://purl.org/dc/elements/1.1/"
   xmlns:cc="http://creativecommons.org/ns#"
   xmlns:rdf="http://www.w3.org/1999/02/22-rdf-syntax-ns#"
   xmlns:svg="http://www.w3.org/2000/svg"
   xmlns="http://www.w3.org/2000/svg"
   viewBox="0 0 122.66667 158.66667"
   height="158.66667"
   width="122.66667"
   xml:space="preserve"
   id="svg2"
   version="1.1"><metadata
     id="metadata8"><rdf:RDF><cc:Work
         rdf:about=""><dc:format>image/svg+xml</dc:format><dc:type
           rdf:resource="http://purl.org/dc/dcmitype/StillImage" /></cc:Work></rdf:RDF></metadata><defs
     id="defs6" /><g
     transform="matrix(1.3333333,0,0,-1.3333333,0,158.66667)"
     id="g10"><g
       transform="scale(0.1)"
       id="g12"><path
         id="path14"
         style="fill:#f7f701;fill-opacity:1;fill-rule:nonzero;stroke:none"
         d="M 456.25,1184.73 901.879,39.7695 H 10.6602 Z" /><path
         id="path16"
         style="fill:#ff0000;fill-opacity:1;fill-rule:nonzero;stroke:none"
         d="m 583.09,835.16 c 0,-58.441 -43.988,-105.82 -98.25,-105.82 -54.25,0 -98.238,47.379 -98.238,105.82 0,58.43 43.988,105.781 98.238,105.781 54.262,0 98.25,-47.351 98.25,-105.781 z" /><path
         id="path18"
         style="fill:#ff0000;fill-opacity:1;fill-rule:nonzero;stroke:none"
         d="m 731.25,322.461 c 0,-66.992 -53.629,-121.289 -119.77,-121.289 -66.128,0 -119.718,54.297 -119.718,121.289 0,67.027 53.59,121.328 119.718,121.328 66.141,0 119.77,-54.301 119.77,-121.328 z" /><path
         id="path20"
         style="fill:#ff0000;fill-opacity:1;fill-rule:nonzero;stroke:none"
         d="m 450.082,485 c 0,-58.441 -43.992,-105.781 -98.242,-105.781 -54.301,0 -98.289,47.34 -98.289,105.781 0,58.441 43.988,105.82 98.289,105.82 54.25,0 98.242,-47.379 98.242,-105.82 z" /><path
         id="path22"
         style="fill:#ff6600;fill-opacity:1;fill-rule:nonzero;stroke:none"
         d="M 39.5313,186.559 888.52,145.199 919.102,8.91016 1.33203,8.71094 Z" /><path
         id="path24"
         style="fill:#000000;fill-opacity:1;fill-rule:nonzero;stroke:none"
         d="m 565.039,667.148 c -30.937,-0.039 -56.019,-23.707 -55.98,-52.968 0,-29.219 25.043,-52.93 55.98,-52.93 30.941,0 56.012,23.672 56.012,52.93 0,14.058 -5.891,27.5 -16.403,37.461 -10.507,9.918 -24.769,15.507 -39.609,15.507 z m 0.941,-28.789 c 13.86,0 25.071,-10.55 25.071,-23.558 0,-13 -11.211,-23.59 -25.071,-23.59 -13.871,0 -25.121,10.59 -25.121,23.59 0,13.008 11.25,23.558 25.121,23.558 z" /><path
         id="path26"
         style="fill:#000000;fill-opacity:1;fill-rule:nonzero;stroke:none"
         d="m 248.551,354.301 c -30.891,0 -55.969,-23.711 -55.969,-52.93 0,-29.262 25.078,-52.93 55.969,-52.973 30.941,0 56.019,23.711 56.019,52.973 0,14.02 -5.898,27.5 -16.41,37.418 -10.5,9.922 -24.719,15.512 -39.609,15.512 z m 0.941,-28.75 c 13.867,0 25.078,-10.551 25.078,-23.602 0,-13 -11.211,-23.551 -25.078,-23.551 -13.871,0 -25.082,10.551 -25.082,23.551 0,13.051 11.211,23.602 25.082,23.602 z" /></g></g></svg>