<?xml version="1.0" encoding="UTF-8" standalone="no"?>
<svg
   xmlns:dc="http://purl.org/dc/elements/1.1/"
   xmlns:cc="http://creativecommons.org/ns#"
   xmlns:rdf="http://www.w3.org/1999/02/22-rdf-syntax-ns#"
   xmlns:svg="http://www.w3.org/2000/svg"
   xmlns="http://www.w3.org/2000/svg"
   viewBox="0 0 560 158.66667"
   height="158.66667"
   width="560"
   xml:space="preserve"
   id="svg2"
   version="1.1"><metadata
     id="metadata8"><rdf:RDF><cc:Work
         rdf:about=""><dc:format>image/svg+xml</dc:format><dc:type
           rdf:resource="http://purl.org/dc/dcmitype/StillImage" /></cc:Work></rdf:RDF></metadata><defs
     id="defs6" /><g
     transform="matrix(1.3333333,0,0,-1.3333333,0,158.66667)"
     id="g10"><g
       transform="scale(0.1)"
       id="g12"><path
         id="path14"
         style="fill:#ffffff;fill-opacity:1;fill-rule:nonzero;stroke:none"
         d="M 279.301,496.328 V 148.359 c 0,-26.019 11.359,-44.687 34.019,-56.0192 22.7,-10.1914 56.719,-18.6679 102.11,-25.4609 12.34,-2.2695 18.55,-11.8789 18.55,-28.8281 0,-7.9297 -1.05,-17.5391 -3.121,-28.87111 -29.879,2.26951 -63.91,4.53121 -102.07,6.80081 -38.129,1.1289 -79.379,1.6797 -123.711,1.6797 -26.797,0 -57.226,-0.5508 -91.25,-1.6797 C 79.8008,13.7109 47.8516,11.4492 17.9297,9.17969 15.8594,20.5117 14.8398,29.5313 14.8398,36.3281 c 0,15.8633 5.1602,24.9219 15.4688,27.1524 41.25,9.0586 68.5625,17.539 81.9614,25.4687 14.449,9.0625 21.679,24.9218 21.679,47.5308 v 863.99 c 0,22.62 -8.25,39.02 -24.769,49.22 -15.4691,10.19 -43.8284,18.08 -85.0394,23.75 -10.3125,2.26 -15.46872,12.46 -15.46872,30.54 0,7.93 1.01953,16.41 3.08982,25.47 28.8594,-2.26 59.2891,-4.53 91.2503,-6.79 32.968,-1.14 63.898,-1.68 92.769,-1.68 h 218.09 c 111.359,0 194.879,-28.87 250.539,-86.57 55.668,-57.73 83.52,-132.422 83.52,-224.058 0,-36.211 -7.731,-73.012 -23.2,-110.352 -14.46,-37.34 -36.101,-71.289 -64.96,-101.84 -27.86,-29.41 -62.891,-53.75 -105.161,-72.961 -41.25,-19.258 -88.16,-28.871 -140.738,-28.871 z m 81.988,69.613 c 72.152,0 127.852,17.539 167.031,52.61 39.18,35.078 58.75,94.5 58.75,178.211 0,35.078 -3.59,67.886 -10.82,98.468 -7.23,30.551 -19.57,57.11 -37.109,79.77 -17.539,23.75 -40.743,42.42 -69.61,56.02 -28.871,13.55 -64.961,20.35 -108.242,20.35 H 279.301 V 565.941 Z" /><path
         id="path16"
         style="fill:#ffffff;fill-opacity:1;fill-rule:nonzero;stroke:none"
         d="m 1135.47,136.48 c 0,-22.609 7.23,-38.4683 21.68,-47.5308 14.41,-7.9297 41.25,-16.4101 80.43,-25.4687 10.27,-2.2305 15.43,-11.2891 15.43,-27.1524 0,-6.7968 -1.02,-15.8164 -3.09,-27.14841 -31.95,2.26951 -63.9,4.53121 -95.86,6.80081 -31.99,1.1289 -62.38,1.6797 -91.25,1.6797 -27.85,0 -58.79,-0.5508 -92.81,-1.6797 -33.012,-2.2696 -64.449,-4.5313 -94.34,-6.80081 -2.07,11.33201 -3.082,20.35161 -3.082,27.14841 0,15.8633 5.152,24.9219 15.473,27.1524 39.179,7.9297 65.969,16.3984 80.39,25.4687 14.45,9.0625 21.68,24.9218 21.68,47.5308 v 863.99 c 0,22.62 -7.23,38.48 -21.68,47.5 -14.421,10.19 -41.211,18.67 -80.39,25.47 -6.211,1.13 -10.321,4.53 -12.391,10.19 -2.07,5.67 -3.082,11.88 -3.082,18.67 0,6.8 1.012,15.82 3.082,27.15 30.942,-2.26 62.891,-4.53 95.899,-6.79 34.031,-1.14 64.421,-1.68 91.251,-1.68 25.74,0 55.16,0.54 88.13,1.68 34.02,2.26 67.03,4.53 98.98,6.79 2.07,-11.33 3.09,-20.35 3.09,-27.15 0,-16.99 -5.16,-26.6 -15.43,-28.86 -39.18,-6.8 -66.02,-15.28 -80.43,-25.47 -14.45,-9.02 -21.68,-24.88 -21.68,-47.5 z" /><path
         id="path18"
         style="fill:#ffffff;fill-opacity:1;fill-rule:nonzero;stroke:none"
         d="m 1600.78,87.2695 h 354.14 c 34.03,0 61.88,3.9414 83.52,11.8711 21.64,9.0584 39.68,21.4804 54.14,37.3394 15.47,15.821 27.85,35.629 37.11,59.418 10.31,24.883 20.62,53.75 30.93,86.563 2.08,9.059 6.18,15.269 12.39,18.668 6.17,4.531 11.33,6.801 15.47,6.801 11.32,0 21.64,-3.399 30.9,-10.2 -9.26,-49.8 -16.49,-97.3 -21.65,-142.57 -5.15,-45.281 -8.75,-82.6209 -10.82,-112.0389 -1.01,-12.4609 -4.64,-21.4805 -10.82,-27.1406 -6.21,-5.6719 -13.9,-8.51956 -23.2,-8.51956 -19.61,0 -43.83,1.71875 -72.69,5.11716 -27.86,3.4024 -58.25,5.0821 -91.25,5.0821 h -598.52 c 0,11.3203 2.07,20.9296 6.17,28.8593 L 1984.3,1051.37 h -344.89 c -36.05,0 -65.46,-2.27 -88.12,-6.8 -21.68,-4.49 -39.73,-13.01 -54.14,-25.43 -14.45,-12.46 -25.78,-29.999 -34.03,-52.62 -8.24,-22.649 -15.46,-52.61 -21.64,-89.961 -2.07,-9.059 -6.21,-15.86 -12.38,-20.387 -5.15,-3.402 -11.37,-5.082 -18.55,-5.082 -5.16,0 -10.82,1.14 -17.03,3.398 -5.16,2.274 -9.81,4.532 -13.91,6.762 7.23,47.539 12.38,91.68 15.47,132.422 4.1,41.878 7.22,75.818 9.26,101.838 1.05,22.61 11.87,33.94 32.5,33.94 19.57,0 41.75,-1.68 66.48,-5.07 24.77,-2.27 53.63,-3.4 86.6,-3.4 h 595.43 c 0,-14.73 -2.03,-26.02 -6.17,-33.95 z" /><path
         id="path20"
         style="fill:#ffffff;fill-opacity:1;fill-rule:nonzero;stroke:none"
         d="m 2540.2,87.2695 h 354.14 c 34.02,0 61.87,3.9414 83.51,11.8711 21.68,9.0584 39.73,21.4804 54.14,37.3394 15.47,15.821 27.85,35.629 37.11,59.418 10.31,24.883 20.63,53.75 30.94,86.563 2.07,9.059 6.21,15.269 12.38,18.668 6.17,4.531 11.33,6.801 15.47,6.801 11.33,0 21.64,-3.399 30.94,-10.2 -9.3,-49.8 -16.53,-97.3 -21.68,-142.57 -5.16,-45.281 -8.75,-82.6209 -10.82,-112.0389 -1.02,-12.4609 -4.65,-21.4805 -10.82,-27.1406 -6.17,-5.6719 -13.91,-8.51956 -23.21,-8.51956 -19.57,0 -43.82,1.71875 -72.69,5.11716 -27.81,3.4024 -58.24,5.0821 -91.25,5.0821 h -598.52 c 0,11.3203 2.07,20.9296 6.21,28.8593 l 587.7,1004.8505 h -344.88 c -36.1,0 -65.51,-2.27 -88.17,-6.8 -21.64,-4.49 -39.68,-13.01 -54.14,-25.43 -14.41,-12.46 -25.78,-29.999 -34.02,-52.62 -8.24,-22.649 -15.47,-52.61 -21.64,-89.961 -2.07,-9.059 -6.21,-15.86 -12.38,-20.387 -5.16,-3.402 -11.33,-5.082 -18.56,-5.082 -5.16,0 -10.82,1.14 -17.03,3.398 -5.16,2.274 -9.77,4.532 -13.91,6.762 7.23,47.539 12.39,91.68 15.47,132.422 4.14,41.878 7.23,75.818 9.3,101.838 1.01,22.61 11.83,33.94 32.46,33.94 19.57,0 41.76,-1.68 66.48,-5.07 24.77,-2.27 53.64,-3.4 86.65,-3.4 h 595.42 c 0,-14.73 -2.07,-26.02 -6.21,-33.95 z" /><path
         id="path22"
         style="fill:#f7f701;fill-opacity:1;fill-rule:nonzero;stroke:none"
         d="M 3736.25,1184.73 4181.88,39.7695 h -891.22 z" /><path
         id="path24"
         style="fill:#ff0000;fill-opacity:1;fill-rule:nonzero;stroke:none"
         d="m 3863.09,835.16 c 0,-58.441 -43.99,-105.82 -98.25,-105.82 -54.25,0 -98.24,47.379 -98.24,105.82 0,58.43 43.99,105.781 98.24,105.781 54.26,0 98.25,-47.351 98.25,-105.781 z" /><path
         id="path26"
         style="fill:#ff0000;fill-opacity:1;fill-rule:nonzero;stroke:none"
         d="m 4011.25,322.461 c 0,-66.992 -53.63,-121.289 -119.77,-121.289 -66.13,0 -119.72,54.297 -119.72,121.289 0,67.027 53.59,121.328 119.72,121.328 66.14,0 119.77,-54.301 119.77,-121.328 z" /><path
         id="path28"
         style="fill:#ff0000;fill-opacity:1;fill-rule:nonzero;stroke:none"
         d="m 3730.08,485 c 0,-58.441 -43.99,-105.781 -98.24,-105.781 -54.3,0 -98.29,47.34 -98.29,105.781 0,58.441 43.99,105.82 98.29,105.82 54.25,0 98.24,-47.379 98.24,-105.82 z" /><path
         id="path30"
         style="fill:#ff6600;fill-opacity:1;fill-rule:nonzero;stroke:none"
         d="M 3319.53,186.559 4168.52,145.199 4199.1,8.91016 3281.33,8.71094 Z" /><path
         id="path32"
         style="fill:#000000;fill-opacity:1;fill-rule:nonzero;stroke:none"
         d="m 3845.04,667.148 c -30.94,-0.039 -56.02,-23.707 -55.98,-52.968 0,-29.219 25.04,-52.93 55.98,-52.93 30.94,0 56.01,23.672 56.01,52.93 0,14.058 -5.89,27.5 -16.4,37.461 -10.51,9.918 -24.77,15.507 -39.61,15.507 z m 0.94,-28.789 c 13.86,0 25.07,-10.55 25.07,-23.558 0,-13 -11.21,-23.59 -25.07,-23.59 -13.87,0 -25.12,10.59 -25.12,23.59 0,13.008 11.25,23.558 25.12,23.558 z" /><path
         id="path34"
         style="fill:#000000;fill-opacity:1;fill-rule:nonzero;stroke:none"
         d="m 3528.55,354.301 c -30.89,0 -55.97,-23.711 -55.97,-52.93 0,-29.262 25.08,-52.93 55.97,-52.973 30.94,0 56.02,23.711 56.02,52.973 0,14.02 -5.9,27.5 -16.41,37.418 -10.5,9.922 -24.72,15.512 -39.61,15.512 z m 0.94,-28.75 c 13.87,0 25.08,-10.551 25.08,-23.602 0,-13 -11.21,-23.551 -25.08,-23.551 -13.87,0 -25.08,10.551 -25.08,23.551 0,13.051 11.21,23.602 25.08,23.602 z" /></g></g></svg>